<?xml version="1.0" encoding="UTF-8"?>
<svg width="512" height="512" viewBox="0 0 512 512" xmlns="http://www.w3.org/2000/svg">
  <defs>
    <linearGradient id="bg" x1="0%" y1="0%" x2="100%" y2="100%">
      <stop offset="0%" style="stop-color:#3B82F6"/>
      <stop offset="100%" style="stop-color:#2563EB"/>
    </linearGradient>
  </defs>
  <rect width="512" height="512" rx="128" fill="url(#bg)"/>
  <path d="M405.5 136.5c-1.2-3.8-4.3-6.9-8.1-8.1L350 115.8c-3.8-1.2-7.9-0.2-10.7 2.6l-94.3 94.3-94.3-47.2c-3.3-1.7-7.2-1.4-10.2 0.8L89.3 197c-3 2.2-4.7 5.8-4.4 9.5 0.3 3.7 2.6 7 5.9 8.6l94.3 47.2-47.2 47.2-35.4-11.8c-2.7-0.9-5.7-0.5-8.1 1.1L64 319.2c-2.4 1.6-3.9 4.3-3.9 7.2 0 2.9 1.5 5.6 3.9 7.2l35.4 23.6c2.4 1.6 5.4 2 8.1 1.1l35.4-11.8 47.2 47.2-47.2 94.3c-1.6 3.3-1.4 7.2 0.8 10.2l30.7 30.7c2.2 3 5.8 4.7 9.5 4.4 3.7-0.3 7-2.6 8.6-5.9l47.2-94.3 94.3 47.2c3.3 1.7 7.2 1.4 10.2-0.8l30.7-30.7c3-2.2 4.7-5.8 4.4-9.5-0.3-3.7-2.6-7-5.9-8.6l-94.3-47.2 94.3-94.3c2.8-2.8 3.8-6.9 2.6-10.7l-12.6-47.4z" fill="white"/>
</svg>
