<?xml version="1.0" encoding="UTF-8"?>
<svg width="800px" height="600px" viewBox="0 0 800 600" version="1.1" xmlns="http://www.w3.org/2000/svg">
    <g stroke="none" stroke-width="1" fill="none" fill-rule="evenodd">
        <!-- Background circle -->
        <circle fill="#E3F2FD" cx="400" cy="300" r="250"/>
        
        <!-- Airplane -->
        <g transform="translate(250, 250)">
            <path d="M300,50 C280,40 260,35 240,35 L100,35 L80,15 L60,35 L40,25 L30,35 L20,30 L10,40 L20,45 L30,40 L40,50 L60,40 L80,60 L100,40 L240,40 C260,40 280,45 300,55" 
                  fill="#2196F3" />
            <circle fill="#1976D2" cx="250" cy="40" r="8"/>
        </g>
        
        <!-- Cloud 1 -->
        <g transform="translate(100, 150)">
            <path d="M50,20 C50,20 90,20 90,20 C90,20 90,0 70,0 C50,0 50,20 50,20" fill="#FFFFFF"/>
            <path d="M0,30 C0,15 15,0 30,0 C45,0 60,15 60,30 C60,45 45,60 30,60 C15,60 0,45 0,30" fill="#FFFFFF"/>
        </g>
        
        <!-- Cloud 2 -->
        <g transform="translate(500, 400)">
            <path d="M40,15 C40,15 70,15 70,15 C70,15 70,0 55,0 C40,0 40,15 40,15" fill="#FFFFFF"/>
            <path d="M0,25 C0,12 10,0 25,0 C40,0 50,12 50,25 C50,38 40,50 25,50 C10,50 0,38 0,25" fill="#FFFFFF"/>
        </g>
        
        <!-- Landmarks -->
        <g transform="translate(350, 350)">
            <!-- Eiffel Tower simplified -->
            <path d="M30,0 L50,100 L10,100 L30,0" fill="#455A64"/>
            <!-- Big Ben simplified -->
            <rect x="100" y="20" width="20" height="80" fill="#455A64"/>
            <!-- Statue of Liberty simplified -->
            <path d="M150,20 L170,20 L160,100" fill="#455A64"/>
        </g>
    </g>
</svg>
